<svg xmlns="http://www.w3.org/2000/svg" width="40" height="40" viewBox="0 0 40 40">
  <g>
    <path d="M20 0C8.955 0 0 8.955 0 20C0 31.045 8.955 40 20 40C31.045 40 40 31.045 40 20C40 8.955 31.045 0 20 0ZM20 37.5C10.665 37.5 2.5 29.335 2.5 20C2.5 10.665 10.665 2.5 20 2.5C29.335 2.5 37.5 10.665 37.5 20C37.5 29.335 29.335 37.5 20 37.5Z" fill="#a0aec0"/>
    <path d="M20 2.5C29.335 2.5 37.5 10.665 37.5 20C37.5 29.335 29.335 37.5 20 37.5C10.665 37.5 2.5 29.335 2.5 20C2.5 10.665 10.665 2.5 20 2.5Z" fill="#1c64f2"/>
    <circle cx="20" cy="20" r="7.5" fill="#a0aec0"/>
    <path d="M16.25 20H23.75V27.5H16.25V20Z" fill="#1c64f2"/>
  </g>
</svg>
